solid RedGate
facet normal 0.0 0.0 -1.0
outer loop
vertex 154.22141325777 106.136080875839 0.0
vertex 83.5214132577702 79.8360808758387 0.0
vertex 83.5214132577702 106.136080875839 0.0
endloop
endfacet
facet normal 0.0 0.0 -1.0
outer loop
vertex 83.5214132577702 79.8360808758387 0.0
vertex 154.22141325777 106.136080875839 0.0
vertex 94.626667933877 79.8360808758387 0.0
endloop
endfacet
facet normal 0.0 0.0 -1.0
outer loop
vertex 94.626667933877 79.8360808758387 0.0
vertex 154.22141325777 106.136080875839 0.0
vertex 96.8016618410686 79.8360808758387 0.0
endloop
endfacet
facet normal 0.0 0.0 -1.0
outer loop
vertex 94.626667933877 79.8360808758387 0.0
vertex 96.8016618410686 79.8360808758387 0.0
vertex 94.626667933877 77.8360808758387 0.0
endloop
endfacet
facet normal 0.0 0.0 -1.0
outer loop
vertex 96.8016618410686 79.8360808758387 0.0
vertex 154.22141325777 106.136080875839 0.0
vertex 108.875025993277 79.8360808758387 0.0
endloop
endfacet
facet normal 0.0 0.0 -1.0
outer loop
vertex 108.875025993277 79.8360808758387 0.0
vertex 154.22141325777 106.136080875839 0.0
vertex 111.47812828828 79.8360808758387 0.0
endloop
endfacet
facet normal 0.0 0.0 -1.0
outer loop
vertex 108.875025993277 79.8360808758387 0.0
vertex 111.47812828828 79.8360808758387 0.0
vertex 108.875025993277 77.8360808758387 0.0
endloop
endfacet
facet normal 0.0 0.0 -1.0
outer loop
vertex 111.47812828828 79.8360808758387 0.0
vertex 154.22141325777 106.136080875839 0.0
vertex 123.549261790969 79.8360808758387 0.0
endloop
endfacet
facet normal 0.0 0.0 -1.0
outer loop
vertex 123.549261790969 79.8360808758387 0.0
vertex 154.22141325777 106.136080875839 0.0
vertex 123.549261790969 77.8360808758387 0.0
endloop
endfacet
facet normal 0.0 0.0 -1.0
outer loop
vertex 123.549261790969 77.8360808758387 0.0
vertex 154.22141325777 106.136080875839 0.0
vertex 127.047616952922 79.8360808758387 0.0
endloop
endfacet
facet normal 0.0 0.0 -1.0
outer loop
vertex 127.047616952922 79.8360808758387 0.0
vertex 154.22141325777 106.136080875839 0.0
vertex 138.885337524369 79.8360808758387 0.0
endloop
endfacet
facet normal 0.0 0.0 -1.0
outer loop
vertex 138.885337524369 79.8360808758387 0.0
vertex 154.22141325777 106.136080875839 0.0
vertex 138.885337524369 77.8360808758387 0.0
endloop
endfacet
facet normal 0.0 0.0 -1.0
outer loop
vertex 138.885337524369 77.8360808758387 0.0
vertex 154.22141325777 106.136080875839 0.0
vertex 142.288755736547 79.8360808758387 0.0
endloop
endfacet
facet normal 0.0 0.0 -1.0
outer loop
vertex 142.288755736547 79.8360808758387 0.0
vertex 154.22141325777 106.136080875839 0.0
vertex 154.22141325777 79.8360808758387 0.0
endloop
endfacet
facet normal 0.0 0.0 -1.0
outer loop
vertex 142.288755736547 77.8360808758387 0.0
vertex 138.885337524369 77.8360808758387 0.0
vertex 142.288755736547 79.8360808758387 0.0
endloop
endfacet
facet normal 0.0 0.0 -1.0
outer loop
vertex 127.047616952922 77.8360808758387 0.0
vertex 123.549261790969 77.8360808758387 0.0
vertex 127.047616952922 79.8360808758387 0.0
endloop
endfacet
facet normal 0.0 0.0 -1.0
outer loop
vertex 111.47812828828 77.8360808758387 0.0
vertex 108.875025993277 77.8360808758387 0.0
vertex 111.47812828828 79.8360808758387 0.0
endloop
endfacet
facet normal 0.0 0.0 -1.0
outer loop
vertex 96.8016618410686 77.8360808758387 0.0
vertex 94.626667933877 77.8360808758387 0.0
vertex 96.8016618410686 79.8360808758387 0.0
endloop
endfacet
facet normal -1.0 0.0 0.0
outer loop
vertex 154.22141325777 77.8360808758387 52.1
vertex 154.22141325777 58.3360808758387 0.0
vertex 154.22141325777 58.3360808758387 52.1
endloop
endfacet
facet normal -1.0 0.0 0.0
outer loop
vertex 154.22141325777 58.3360808758387 0.0
vertex 154.22141325777 77.8360808758387 52.1
vertex 154.22141325777 77.8360808758387 44.3929678649057
endloop
endfacet
facet normal -1.0 0.0 0.0
outer loop
vertex 154.22141325777 58.3360808758387 0.0
vertex 154.22141325777 77.8360808758387 44.3929678649057
vertex 154.22141325777 79.8360808758387 0.0
endloop
endfacet
facet normal -1.0 0.0 0.0
outer loop
vertex 154.22141325777 79.8360808758387 0.0
vertex 154.22141325777 77.8360808758387 44.3929678649057
vertex 154.22141325777 79.8360808758387 44.3929678649057
endloop
endfacet
facet normal 1.0 -0.0 -0.0
outer loop
vertex 83.5214132577702 79.8360808758387 0.0
vertex 83.5214132577702 58.3360808758387 52.1
vertex 83.5214132577702 58.3360808758387 0.0
endloop
endfacet
facet normal 1.0 -0.0 -0.0
outer loop
vertex 83.5214132577702 58.3360808758387 52.1
vertex 83.5214132577702 79.8360808758387 0.0
vertex 83.5214132577702 77.8360808758387 44.3929678649057
endloop
endfacet
facet normal 1.0 -0.0 -0.0
outer loop
vertex 83.5214132577702 77.8360808758387 44.3929678649057
vertex 83.5214132577702 79.8360808758387 0.0
vertex 83.5214132577702 79.8360808758387 44.3929678649057
endloop
endfacet
facet normal 1.0 -0.0 -0.0
outer loop
vertex 83.5214132577702 77.8360808758387 52.1
vertex 83.5214132577702 58.3360808758387 52.1
vertex 83.5214132577702 77.8360808758387 44.3929678649057
endloop
endfacet
facet normal 0.0 0.0 -1.0
outer loop
vertex 119.652996714998 163.427582873433 0.0
vertex 104.052996714998 138.186252648934 0.0
vertex 104.052996714998 163.427582873433 0.0
endloop
endfacet
facet normal 0.0 0.0 -1.0
outer loop
vertex 104.052996714998 138.186252648934 0.0
vertex 119.652996714998 163.427582873433 0.0
vertex 107.793021142996 138.186252648934 0.0
endloop
endfacet
facet normal 0.0 0.0 -1.0
outer loop
vertex 107.793021142996 138.186252648934 0.0
vertex 119.652996714998 163.427582873433 0.0
vertex 116.029047889552 138.186252648934 0.0
endloop
endfacet
facet normal 0.0 0.0 -1.0
outer loop
vertex 116.029047889552 138.186252648934 0.0
vertex 119.652996714998 163.427582873433 0.0
vertex 119.652996714998 138.186252648934 0.0
endloop
endfacet
facet normal 0.0 0.0 1.0
outer loop
vertex 119.652996714998 138.186252648934 52.1
vertex 104.052996714998 163.427582873433 52.1
vertex 104.052996714998 138.186252648934 52.1
endloop
endfacet
facet normal 0.0 0.0 1.0
outer loop
vertex 104.052996714998 163.427582873433 52.1
vertex 119.652996714998 138.186252648934 52.1
vertex 119.652996714998 163.427582873433 52.1
endloop
endfacet
facet normal 1.0 0.0 0.0
outer loop
vertex 119.652996714998 163.427582873433 0.0
vertex 119.652996714998 138.186252648934 52.1
vertex 119.652996714998 138.186252648934 0.0
endloop
endfacet
facet normal 1.0 0.0 0.0
outer loop
vertex 119.652996714998 138.186252648934 52.1
vertex 119.652996714998 163.427582873433 0.0
vertex 119.652996714998 163.427582873433 52.1
endloop
endfacet
facet normal 0.0 -1.0 0.0
outer loop
vertex 119.652996714998 138.186252648934 52.1
vertex 116.029047889552 138.186252648934 0.0
vertex 119.652996714998 138.186252648934 0.0
endloop
endfacet
facet normal 0.0 -1.0 0.0
outer loop
vertex 116.029047889552 138.186252648934 0.0
vertex 119.652996714998 138.186252648934 52.1
vertex 116.029047889552 138.186252648934 45.9
endloop
endfacet
facet normal 0.0 -1.0 0.0
outer loop
vertex 116.029047889552 138.186252648934 45.9
vertex 119.652996714998 138.186252648934 52.1
vertex 107.793021142996 138.186252648934 45.9
endloop
endfacet
facet normal 0.0 -1.0 0.0
outer loop
vertex 107.793021142996 138.186252648934 45.9
vertex 104.052996714998 138.186252648934 0.0
vertex 107.793021142996 138.186252648934 0.0
endloop
endfacet
facet normal 0.0 -1.0 0.0
outer loop
vertex 104.052996714998 138.186252648934 0.0
vertex 107.793021142996 138.186252648934 45.9
vertex 104.052996714998 138.186252648934 52.1
endloop
endfacet
facet normal 0.0 -1.0 0.0
outer loop
vertex 104.052996714998 138.186252648934 52.1
vertex 107.793021142996 138.186252648934 45.9
vertex 119.652996714998 138.186252648934 52.1
endloop
endfacet
facet normal -1.0 0.0 0.0
outer loop
vertex 104.052996714998 163.427582873433 52.1
vertex 104.052996714998 138.186252648934 0.0
vertex 104.052996714998 138.186252648934 52.1
endloop
endfacet
facet normal -1.0 0.0 0.0
outer loop
vertex 104.052996714998 138.186252648934 0.0
vertex 104.052996714998 163.427582873433 52.1
vertex 104.052996714998 163.427582873433 0.0
endloop
endfacet
facet normal -0.0 1.0 0.0
outer loop
vertex 104.052996714998 163.427582873433 52.1
vertex 119.652996714998 163.427582873433 0.0
vertex 104.052996714998 163.427582873433 0.0
endloop
endfacet
facet normal -0.0 1.0 0.0
outer loop
vertex 119.652996714998 163.427582873433 0.0
vertex 104.052996714998 163.427582873433 52.1
vertex 119.652996714998 163.427582873433 52.1
endloop
endfacet
facet normal 0.0 0.0 1.0
outer loop
vertex 136.13847615144 95.0702066631779 57.9
vertex 101.604350364101 113.153143769508 57.9
vertex 101.604350364101 95.0702066631779 57.9
endloop
endfacet
facet normal 0.0 0.0 1.0
outer loop
vertex 101.604350364101 113.153143769508 57.9
vertex 136.13847615144 95.0702066631779 57.9
vertex 136.13847615144 113.153143769508 57.9
endloop
endfacet
facet normal 1.0 -0.0 0.0
outer loop
vertex 136.13847615144 113.153143769508 55.0
vertex 136.13847615144 95.0702066631779 57.9
vertex 136.13847615144 95.0702066631779 55.0
endloop
endfacet
facet normal 1.0 -0.0 0.0
outer loop
vertex 136.13847615144 95.0702066631779 57.9
vertex 136.13847615144 113.153143769508 55.0
vertex 136.13847615144 113.153143769508 57.9
endloop
endfacet
facet normal 1.0 -0.0 0.0
outer loop
vertex 136.13847615144 113.153143769508 57.9
vertex 136.13847615144 113.153143769508 55.0
vertex 136.13847615144 113.153143769508 55.8
endloop
endfacet
facet normal 0.0 1.0 0.0
outer loop
vertex 101.604350364101 113.153143769508 57.9
vertex 136.13847615144 113.153143769508 55.8
vertex 101.604350364101 113.153143769508 55.8
endloop
endfacet
facet normal 0.0 1.0 0.0
outer loop
vertex 136.13847615144 113.153143769508 55.8
vertex 101.604350364101 113.153143769508 57.9
vertex 136.13847615144 113.153143769508 57.9
endloop
endfacet
facet normal -1.0 -0.0 -0.0
outer loop
vertex 101.604350364101 113.153143769508 57.9
vertex 101.604350364101 95.0702066631779 55.0
vertex 101.604350364101 95.0702066631779 57.9
endloop
endfacet
facet normal -1.0 -0.0 -0.0
outer loop
vertex 101.604350364101 95.0702066631779 55.0
vertex 101.604350364101 113.153143769508 57.9
vertex 101.604350364101 113.153143769508 55.0
endloop
endfacet
facet normal -1.0 -0.0 -0.0
outer loop
vertex 101.604350364101 113.153143769508 55.0
vertex 101.604350364101 113.153143769508 57.9
vertex 101.604350364101 113.153143769508 55.8
endloop
endfacet
facet normal 0.0 0.0 1.0
outer loop
vertex 154.22141325777 95.0702066631779 55.0
vertex 136.13847615144 113.153143769508 55.0
vertex 136.13847615144 95.0702066631779 55.0
endloop
endfacet
facet normal 0.0 0.0 1.0
outer loop
vertex 136.13847615144 113.153143769508 55.0
vertex 154.22141325777 95.0702066631779 55.0
vertex 154.22141325777 113.153143769508 55.0
endloop
endfacet
facet normal 0.0 1.0 0.0
outer loop
vertex 136.13847615144 113.153143769508 55.0
vertex 154.22141325777 113.153143769508 52.1
vertex 136.13847615144 113.153143769508 52.1
endloop
endfacet
facet normal 0.0 1.0 0.0
outer loop
vertex 154.22141325777 113.153143769508 52.1
vertex 136.13847615144 113.153143769508 55.0
vertex 154.22141325777 113.153143769508 55.0
endloop
endfacet
facet normal 0.0 -1.0 0.0
outer loop
vertex 136.13847615144 95.0702066631779 57.9
vertex 101.604350364101 95.0702066631779 55.0
vertex 136.13847615144 95.0702066631779 55.0
endloop
endfacet
facet normal 0.0 -1.0 0.0
outer loop
vertex 101.604350364101 95.0702066631779 55.0
vertex 136.13847615144 95.0702066631779 57.9
vertex 101.604350364101 95.0702066631779 57.9
endloop
endfacet
facet normal 0.0 -1.0 0.0
outer loop
vertex 154.22141325777 95.0702066631779 55.0
vertex 83.5214132577702 95.0702066631779 52.1
vertex 154.22141325777 95.0702066631779 52.1
endloop
endfacet
facet normal 0.0 -1.0 0.0
outer loop
vertex 83.5214132577702 95.0702066631779 52.1
vertex 154.22141325777 95.0702066631779 55.0
vertex 136.13847615144 95.0702066631779 55.0
endloop
endfacet
facet normal 0.0 -1.0 0.0
outer loop
vertex 83.5214132577702 95.0702066631779 52.1
vertex 136.13847615144 95.0702066631779 55.0
vertex 83.5214132577702 95.0702066631779 55.0
endloop
endfacet
facet normal 0.0 -1.0 0.0
outer loop
vertex 83.5214132577702 95.0702066631779 55.0
vertex 136.13847615144 95.0702066631779 55.0
vertex 101.604350364101 95.0702066631779 55.0
endloop
endfacet
facet normal 1.0 -0.0 -0.0
outer loop
vertex 154.22141325777 106.136080875839 52.1
vertex 154.22141325777 95.0702066631779 55.0
vertex 154.22141325777 95.0702066631779 52.1
endloop
endfacet
facet normal 1.0 -0.0 -0.0
outer loop
vertex 154.22141325777 95.0702066631779 55.0
vertex 154.22141325777 106.136080875839 52.1
vertex 154.22141325777 113.153143769508 55.0
endloop
endfacet
facet normal 1.0 -0.0 -0.0
outer loop
vertex 154.22141325777 113.153143769508 55.0
vertex 154.22141325777 106.136080875839 52.1
vertex 154.22141325777 113.153143769508 52.1
endloop
endfacet
facet normal 0.0 0.0 1.0
outer loop
vertex 101.604350364101 95.0702066631779 55.0
vertex 83.5214132577702 113.153143769508 55.0
vertex 83.5214132577702 95.0702066631779 55.0
endloop
endfacet
facet normal 0.0 0.0 1.0
outer loop
vertex 83.5214132577702 113.153143769508 55.0
vertex 101.604350364101 95.0702066631779 55.0
vertex 101.604350364101 113.153143769508 55.0
endloop
endfacet
facet normal 0.0 1.0 0.0
outer loop
vertex 83.5214132577702 113.153143769508 55.0
vertex 101.604350364101 113.153143769508 52.1
vertex 83.5214132577702 113.153143769508 52.1
endloop
endfacet
facet normal 0.0 1.0 0.0
outer loop
vertex 101.604350364101 113.153143769508 52.1
vertex 83.5214132577702 113.153143769508 55.0
vertex 101.604350364101 113.153143769508 55.0
endloop
endfacet
facet normal -1.0 -4.61698709631401e-017 1.28579303242708e-015
outer loop
vertex 83.5214132577702 113.153143769508 55.0
vertex 83.5214132577702 95.0702066631779 52.1
vertex 83.5214132577702 95.0702066631779 55.0
endloop
endfacet
facet normal -1.0 -4.61698709631401e-017 1.28579303242708e-015
outer loop
vertex 83.5214132577702 95.0702066631779 52.1
vertex 83.5214132577702 113.153143769508 55.0
vertex 83.5214132577702 106.136080875839 52.1
endloop
endfacet
facet normal -1.0 -4.61698709631401e-017 1.28579303242708e-015
outer loop
vertex 83.5214132577702 106.136080875839 52.1
vertex 83.5214132577702 113.153143769508 55.0
vertex 83.5214132577702 113.153143769508 52.1
endloop
endfacet
facet normal 0.0 0.0 1.0
outer loop
vertex 136.13847615144 113.153143769508 55.8
vertex 101.604350364101 131.236080875839 55.8
vertex 101.604350364101 113.153143769508 55.8
endloop
endfacet
facet normal 0.0 0.0 1.0
outer loop
vertex 101.604350364101 131.236080875839 55.8
vertex 136.13847615144 113.153143769508 55.8
vertex 136.13847615144 131.236080875839 55.8
endloop
endfacet
facet normal 1.0 -0.0 -0.0
outer loop
vertex 136.13847615144 131.236080875839 52.1
vertex 136.13847615144 113.153143769508 55.0
vertex 136.13847615144 113.153143769508 52.1
endloop
endfacet
facet normal 1.0 -0.0 -0.0
outer loop
vertex 136.13847615144 113.153143769508 55.0
vertex 136.13847615144 131.236080875839 52.1
vertex 136.13847615144 113.153143769508 55.8
endloop
endfacet
facet normal 1.0 -0.0 -0.0
outer loop
vertex 136.13847615144 113.153143769508 55.8
vertex 136.13847615144 131.236080875839 52.1
vertex 136.13847615144 131.236080875839 55.8
endloop
endfacet
facet normal -1.0 0.0 0.0
outer loop
vertex 101.604350364101 131.236080875839 55.8
vertex 101.604350364101 113.153143769508 55.0
vertex 101.604350364101 113.153143769508 55.8
endloop
endfacet
facet normal -1.0 0.0 0.0
outer loop
vertex 101.604350364101 113.153143769508 55.0
vertex 101.604350364101 131.236080875839 55.8
vertex 101.604350364101 113.153143769508 52.1
endloop
endfacet
facet normal -1.0 0.0 0.0
outer loop
vertex 101.604350364101 113.153143769508 52.1
vertex 101.604350364101 131.236080875839 55.8
vertex 101.604350364101 131.236080875839 52.1
endloop
endfacet
facet normal 0.0 0.0 -1.0
outer loop
vertex 116.029047889552 138.186252648934 0.0
vertex 107.793021142996 131.236080875839 0.0
vertex 107.793021142996 138.186252648934 0.0
endloop
endfacet
facet normal 0.0 0.0 -1.0
outer loop
vertex 107.793021142996 131.236080875839 0.0
vertex 116.029047889552 138.186252648934 0.0
vertex 116.029047889552 131.236080875839 0.0
endloop
endfacet
facet normal -0.0 -0.0 1.0
outer loop
vertex 116.029047889552 131.236080875839 45.9
vertex 107.793021142996 138.186252648934 45.9
vertex 107.793021142996 131.236080875839 45.9
endloop
endfacet
facet normal -0.0 -0.0 1.0
outer loop
vertex 107.793021142996 138.186252648934 45.9
vertex 116.029047889552 131.236080875839 45.9
vertex 116.029047889552 138.186252648934 45.9
endloop
endfacet
facet normal 1.0 -0.0 -0.0
outer loop
vertex 116.029047889552 138.186252648934 0.0
vertex 116.029047889552 131.236080875839 45.9
vertex 116.029047889552 131.236080875839 0.0
endloop
endfacet
facet normal 1.0 -0.0 -0.0
outer loop
vertex 116.029047889552 131.236080875839 45.9
vertex 116.029047889552 138.186252648934 0.0
vertex 116.029047889552 138.186252648934 45.9
endloop
endfacet
facet normal -0.0 1.0 -0.0
outer loop
vertex 107.793021142996 131.236080875839 45.9
vertex 116.029047889552 131.236080875839 0.0
vertex 107.793021142996 131.236080875839 0.0
endloop
endfacet
facet normal -0.0 1.0 -0.0
outer loop
vertex 116.029047889552 131.236080875839 0.0
vertex 107.793021142996 131.236080875839 45.9
vertex 116.029047889552 131.236080875839 45.9
endloop
endfacet
facet normal -1.0 0.0 0.0
outer loop
vertex 107.793021142996 138.186252648934 45.9
vertex 107.793021142996 131.236080875839 0.0
vertex 107.793021142996 131.236080875839 45.9
endloop
endfacet
facet normal -1.0 0.0 0.0
outer loop
vertex 107.793021142996 131.236080875839 0.0
vertex 107.793021142996 138.186252648934 45.9
vertex 107.793021142996 138.186252648934 0.0
endloop
endfacet
facet normal 0.0 -1.0 -0.0
outer loop
vertex 116.029047889552 138.186252648934 45.9
vertex 107.793021142996 138.186252648934 0.0
vertex 116.029047889552 138.186252648934 0.0
endloop
endfacet
facet normal 0.0 -1.0 -0.0
outer loop
vertex 107.793021142996 138.186252648934 0.0
vertex 116.029047889552 138.186252648934 45.9
vertex 107.793021142996 138.186252648934 45.9
endloop
endfacet
facet normal 0.0 -1.0 0.0
outer loop
vertex 94.626667933877 79.8360808758387 44.3929678649057
vertex 83.5214132577702 79.8360808758387 0.0
vertex 94.626667933877 79.8360808758387 0.0
endloop
endfacet
facet normal 0.0 -1.0 0.0
outer loop
vertex 83.5214132577702 79.8360808758387 0.0
vertex 94.626667933877 79.8360808758387 44.3929678649057
vertex 83.5214132577702 79.8360808758387 44.3929678649057
endloop
endfacet
facet normal -1.0 -0.0 0.0
outer loop
vertex 94.626667933877 79.8360808758387 44.3929678649057
vertex 94.626667933877 77.8360808758387 0.0
vertex 94.626667933877 77.8360808758387 44.3929678649057
endloop
endfacet
facet normal -1.0 -0.0 0.0
outer loop
vertex 94.626667933877 77.8360808758387 0.0
vertex 94.626667933877 79.8360808758387 44.3929678649057
vertex 94.626667933877 79.8360808758387 0.0
endloop
endfacet
facet normal 0.0 0.0 -1.0
outer loop
vertex 94.626667933877 79.8360808758387 44.3929678649057
vertex 83.5214132577702 77.8360808758387 44.3929678649057
vertex 83.5214132577702 79.8360808758387 44.3929678649057
endloop
endfacet
facet normal 0.0 0.0 -1.0
outer loop
vertex 83.5214132577702 77.8360808758387 44.3929678649057
vertex 94.626667933877 79.8360808758387 44.3929678649057
vertex 94.626667933877 77.8360808758387 44.3929678649057
endloop
endfacet
facet normal 0.0 -1.0 0.0
outer loop
vertex 108.875025993277 79.8360808758387 44.3929678649057
vertex 96.8016618410686 79.8360808758387 0.0
vertex 108.875025993277 79.8360808758387 0.0
endloop
endfacet
facet normal 0.0 -1.0 0.0
outer loop
vertex 96.8016618410686 79.8360808758387 0.0
vertex 108.875025993277 79.8360808758387 44.3929678649057
vertex 96.8016618410686 79.8360808758387 44.3929678649057
endloop
endfacet
facet normal -1.0 -0.0 0.0
outer loop
vertex 108.875025993277 79.8360808758387 44.3929678649057
vertex 108.875025993277 77.8360808758387 0.0
vertex 108.875025993277 77.8360808758387 44.3929678649057
endloop
endfacet
facet normal -1.0 -0.0 0.0
outer loop
vertex 108.875025993277 77.8360808758387 0.0
vertex 108.875025993277 79.8360808758387 44.3929678649057
vertex 108.875025993277 79.8360808758387 0.0
endloop
endfacet
facet normal -0.0 -0.0 -1.0
outer loop
vertex 108.875025993277 79.8360808758387 44.3929678649057
vertex 96.8016618410686 77.8360808758387 44.3929678649057
vertex 96.8016618410686 79.8360808758387 44.3929678649057
endloop
endfacet
facet normal -0.0 -0.0 -1.0
outer loop
vertex 96.8016618410686 77.8360808758387 44.3929678649057
vertex 108.875025993277 79.8360808758387 44.3929678649057
vertex 108.875025993277 77.8360808758387 44.3929678649057
endloop
endfacet
facet normal 1.0 0.0 0.0
outer loop
vertex 96.8016618410686 79.8360808758387 0.0
vertex 96.8016618410686 77.8360808758387 44.3929678649057
vertex 96.8016618410686 77.8360808758387 0.0
endloop
endfacet
facet normal 1.0 0.0 0.0
outer loop
vertex 96.8016618410686 77.8360808758387 44.3929678649057
vertex 96.8016618410686 79.8360808758387 0.0
vertex 96.8016618410686 79.8360808758387 44.3929678649057
endloop
endfacet
facet normal 0.0 -1.0 0.0
outer loop
vertex 123.549261790969 79.8360808758387 44.3929678649057
vertex 111.47812828828 79.8360808758387 0.0
vertex 123.549261790969 79.8360808758387 0.0
endloop
endfacet
facet normal 0.0 -1.0 0.0
outer loop
vertex 111.47812828828 79.8360808758387 0.0
vertex 123.549261790969 79.8360808758387 44.3929678649057
vertex 111.47812828828 79.8360808758387 44.3929678649057
endloop
endfacet
facet normal -1.0 -0.0 0.0
outer loop
vertex 123.549261790969 79.8360808758387 44.3929678649057
vertex 123.549261790969 77.8360808758387 0.0
vertex 123.549261790969 77.8360808758387 44.3929678649057
endloop
endfacet
facet normal -1.0 -0.0 0.0
outer loop
vertex 123.549261790969 77.8360808758387 0.0
vertex 123.549261790969 79.8360808758387 44.3929678649057
vertex 123.549261790969 79.8360808758387 0.0
endloop
endfacet
facet normal -0.0 -0.0 -1.0
outer loop
vertex 123.549261790969 79.8360808758387 44.3929678649057
vertex 111.47812828828 77.8360808758387 44.3929678649057
vertex 111.47812828828 79.8360808758387 44.3929678649057
endloop
endfacet
facet normal -0.0 -0.0 -1.0
outer loop
vertex 111.47812828828 77.8360808758387 44.3929678649057
vertex 123.549261790969 79.8360808758387 44.3929678649057
vertex 123.549261790969 77.8360808758387 44.3929678649057
endloop
endfacet
facet normal 1.0 0.0 0.0
outer loop
vertex 111.47812828828 79.8360808758387 0.0
vertex 111.47812828828 77.8360808758387 44.3929678649057
vertex 111.47812828828 77.8360808758387 0.0
endloop
endfacet
facet normal 1.0 0.0 0.0
outer loop
vertex 111.47812828828 77.8360808758387 44.3929678649057
vertex 111.47812828828 79.8360808758387 0.0
vertex 111.47812828828 79.8360808758387 44.3929678649057
endloop
endfacet
facet normal 0.0 -1.0 0.0
outer loop
vertex 138.885337524369 79.8360808758387 44.3929678649057
vertex 127.047616952922 79.8360808758387 0.0
vertex 138.885337524369 79.8360808758387 0.0
endloop
endfacet
facet normal 0.0 -1.0 0.0
outer loop
vertex 127.047616952922 79.8360808758387 0.0
vertex 138.885337524369 79.8360808758387 44.3929678649057
vertex 127.047616952922 79.8360808758387 44.3929678649057
endloop
endfacet
facet normal -1.0 -0.0 0.0
outer loop
vertex 138.885337524369 79.8360808758387 44.3929678649057
vertex 138.885337524369 77.8360808758387 0.0
vertex 138.885337524369 77.8360808758387 44.3929678649057
endloop
endfacet
facet normal -1.0 -0.0 0.0
outer loop
vertex 138.885337524369 77.8360808758387 0.0
vertex 138.885337524369 79.8360808758387 44.3929678649057
vertex 138.885337524369 79.8360808758387 0.0
endloop
endfacet
facet normal -0.0 -0.0 -1.0
outer loop
vertex 138.885337524369 79.8360808758387 44.3929678649057
vertex 127.047616952922 77.8360808758387 44.3929678649057
vertex 127.047616952922 79.8360808758387 44.3929678649057
endloop
endfacet
facet normal -0.0 -0.0 -1.0
outer loop
vertex 127.047616952922 77.8360808758387 44.3929678649057
vertex 138.885337524369 79.8360808758387 44.3929678649057
vertex 138.885337524369 77.8360808758387 44.3929678649057
endloop
endfacet
facet normal 1.0 0.0 0.0
outer loop
vertex 127.047616952922 79.8360808758387 0.0
vertex 127.047616952922 77.8360808758387 44.3929678649057
vertex 127.047616952922 77.8360808758387 0.0
endloop
endfacet
facet normal 1.0 0.0 0.0
outer loop
vertex 127.047616952922 77.8360808758387 44.3929678649057
vertex 127.047616952922 79.8360808758387 0.0
vertex 127.047616952922 79.8360808758387 44.3929678649057
endloop
endfacet
facet normal 0.0 -1.0 0.0
outer loop
vertex 154.22141325777 77.8360808758387 52.1
vertex 142.288755736547 77.8360808758387 44.3929678649057
vertex 154.22141325777 77.8360808758387 44.3929678649057
endloop
endfacet
facet normal 0.0 -1.0 0.0
outer loop
vertex 142.288755736547 77.8360808758387 44.3929678649057
vertex 154.22141325777 77.8360808758387 52.1
vertex 138.885337524369 77.8360808758387 44.3929678649057
endloop
endfacet
facet normal 0.0 -1.0 0.0
outer loop
vertex 138.885337524369 77.8360808758387 44.3929678649057
vertex 154.22141325777 77.8360808758387 52.1
vertex 127.047616952922 77.8360808758387 44.3929678649057
endloop
endfacet
facet normal 0.0 -1.0 0.0
outer loop
vertex 127.047616952922 77.8360808758387 44.3929678649057
vertex 154.22141325777 77.8360808758387 52.1
vertex 123.549261790969 77.8360808758387 44.3929678649057
endloop
endfacet
facet normal 0.0 -1.0 0.0
outer loop
vertex 123.549261790969 77.8360808758387 44.3929678649057
vertex 154.22141325777 77.8360808758387 52.1
vertex 111.47812828828 77.8360808758387 44.3929678649057
endloop
endfacet
facet normal 0.0 -1.0 0.0
outer loop
vertex 111.47812828828 77.8360808758387 44.3929678649057
vertex 154.22141325777 77.8360808758387 52.1
vertex 108.875025993277 77.8360808758387 44.3929678649057
endloop
endfacet
facet normal 0.0 -1.0 0.0
outer loop
vertex 108.875025993277 77.8360808758387 44.3929678649057
vertex 154.22141325777 77.8360808758387 52.1
vertex 96.8016618410686 77.8360808758387 44.3929678649057
endloop
endfacet
facet normal 0.0 -1.0 0.0
outer loop
vertex 96.8016618410686 77.8360808758387 44.3929678649057
vertex 154.22141325777 77.8360808758387 52.1
vertex 94.626667933877 77.8360808758387 44.3929678649057
endloop
endfacet
facet normal 0.0 -1.0 0.0
outer loop
vertex 94.626667933877 77.8360808758387 44.3929678649057
vertex 154.22141325777 77.8360808758387 52.1
vertex 83.5214132577702 77.8360808758387 44.3929678649057
endloop
endfacet
facet normal 0.0 -1.0 0.0
outer loop
vertex 83.5214132577702 77.8360808758387 44.3929678649057
vertex 154.22141325777 77.8360808758387 52.1
vertex 83.5214132577702 77.8360808758387 52.1
endloop
endfacet
facet normal 0.0 -1.0 0.0
outer loop
vertex 96.8016618410686 77.8360808758387 44.3929678649057
vertex 94.626667933877 77.8360808758387 0.0
vertex 96.8016618410686 77.8360808758387 0.0
endloop
endfacet
facet normal 0.0 -1.0 0.0
outer loop
vertex 94.626667933877 77.8360808758387 0.0
vertex 96.8016618410686 77.8360808758387 44.3929678649057
vertex 94.626667933877 77.8360808758387 44.3929678649057
endloop
endfacet
facet normal 0.0 -1.0 0.0
outer loop
vertex 111.47812828828 77.8360808758387 44.3929678649057
vertex 108.875025993277 77.8360808758387 0.0
vertex 111.47812828828 77.8360808758387 0.0
endloop
endfacet
facet normal 0.0 -1.0 0.0
outer loop
vertex 108.875025993277 77.8360808758387 0.0
vertex 111.47812828828 77.8360808758387 44.3929678649057
vertex 108.875025993277 77.8360808758387 44.3929678649057
endloop
endfacet
facet normal 0.0 -1.0 0.0
outer loop
vertex 127.047616952922 77.8360808758387 44.3929678649057
vertex 123.549261790969 77.8360808758387 0.0
vertex 127.047616952922 77.8360808758387 0.0
endloop
endfacet
facet normal 0.0 -1.0 0.0
outer loop
vertex 123.549261790969 77.8360808758387 0.0
vertex 127.047616952922 77.8360808758387 44.3929678649057
vertex 123.549261790969 77.8360808758387 44.3929678649057
endloop
endfacet
facet normal 0.0 -1.0 0.0
outer loop
vertex 142.288755736547 77.8360808758387 44.3929678649057
vertex 138.885337524369 77.8360808758387 0.0
vertex 142.288755736547 77.8360808758387 0.0
endloop
endfacet
facet normal 0.0 -1.0 0.0
outer loop
vertex 138.885337524369 77.8360808758387 0.0
vertex 142.288755736547 77.8360808758387 44.3929678649057
vertex 138.885337524369 77.8360808758387 44.3929678649057
endloop
endfacet
facet normal 0.0 -1.0 0.0
outer loop
vertex 154.22141325777 79.8360808758387 44.3929678649057
vertex 142.288755736547 79.8360808758387 0.0
vertex 154.22141325777 79.8360808758387 0.0
endloop
endfacet
facet normal 0.0 -1.0 0.0
outer loop
vertex 142.288755736547 79.8360808758387 0.0
vertex 154.22141325777 79.8360808758387 44.3929678649057
vertex 142.288755736547 79.8360808758387 44.3929678649057
endloop
endfacet
facet normal 0.0 0.0 -1.0
outer loop
vertex 154.22141325777 79.8360808758387 44.3929678649057
vertex 142.288755736547 77.8360808758387 44.3929678649057
vertex 142.288755736547 79.8360808758387 44.3929678649057
endloop
endfacet
facet normal 0.0 0.0 -1.0
outer loop
vertex 142.288755736547 77.8360808758387 44.3929678649057
vertex 154.22141325777 79.8360808758387 44.3929678649057
vertex 154.22141325777 77.8360808758387 44.3929678649057
endloop
endfacet
facet normal 1.0 0.0 0.0
outer loop
vertex 142.288755736547 79.8360808758387 0.0
vertex 142.288755736547 77.8360808758387 44.3929678649057
vertex 142.288755736547 77.8360808758387 0.0
endloop
endfacet
facet normal 1.0 0.0 0.0
outer loop
vertex 142.288755736547 77.8360808758387 44.3929678649057
vertex 142.288755736547 79.8360808758387 0.0
vertex 142.288755736547 79.8360808758387 44.3929678649057
endloop
endfacet
facet normal 0.0 -1.0 0.0
outer loop
vertex 81.5763485799178 63.7360808758387 44.3929678649057
vertex 68.257180132331 63.7360808758387 0.0
vertex 81.5763485799178 63.7360808758387 0.0
endloop
endfacet
facet normal 0.0 -1.0 0.0
outer loop
vertex 68.257180132331 63.7360808758387 0.0
vertex 81.5763485799178 63.7360808758387 44.3929678649057
vertex 68.257180132331 63.7360808758387 44.3929678649057
endloop
endfacet
facet normal -1.0 0.0 0.0
outer loop
vertex 81.5763485799178 63.7360808758387 44.3929678649057
vertex 81.5763485799178 58.3360808758387 0.0
vertex 81.5763485799178 58.3360808758387 44.3929678649057
endloop
endfacet
facet normal -1.0 0.0 0.0
outer loop
vertex 81.5763485799178 58.3360808758387 0.0
vertex 81.5763485799178 63.7360808758387 44.3929678649057
vertex 81.5763485799178 63.7360808758387 0.0
endloop
endfacet
facet normal 0.0 0.0 -1.0
outer loop
vertex 81.5763485799178 63.7360808758387 44.3929678649057
vertex 68.257180132331 58.3360808758387 44.3929678649057
vertex 68.257180132331 63.7360808758387 44.3929678649057
endloop
endfacet
facet normal 0.0 0.0 -1.0
outer loop
vertex 68.257180132331 58.3360808758387 44.3929678649057
vertex 81.5763485799178 63.7360808758387 44.3929678649057
vertex 81.5763485799178 58.3360808758387 44.3929678649057
endloop
endfacet
facet normal 1.0 -0.0 -0.0
outer loop
vertex 68.257180132331 63.7360808758387 0.0
vertex 68.257180132331 58.3360808758387 44.3929678649057
vertex 68.257180132331 58.3360808758387 0.0
endloop
endfacet
facet normal 1.0 -0.0 -0.0
outer loop
vertex 68.257180132331 58.3360808758387 44.3929678649057
vertex 68.257180132331 63.7360808758387 0.0
vertex 68.257180132331 63.7360808758387 44.3929678649057
endloop
endfacet
facet normal 0.0 -1.0 0.0
outer loop
vertex 168.134436641982 63.7360808758388 44.3929678649057
vertex 156.234436641982 63.7360808758388 0.0
vertex 168.134436641982 63.7360808758388 0.0
endloop
endfacet
facet normal 0.0 -1.0 0.0
outer loop
vertex 156.234436641982 63.7360808758388 0.0
vertex 168.134436641982 63.7360808758388 44.3929678649057
vertex 156.234436641982 63.7360808758388 44.3929678649057
endloop
endfacet
facet normal -1.0 0.0 0.0
outer loop
vertex 168.134436641982 63.7360808758388 44.3929678649057
vertex 168.134436641982 58.3360808758387 0.0
vertex 168.134436641982 58.3360808758387 44.3929678649057
endloop
endfacet
facet normal -1.0 0.0 0.0
outer loop
vertex 168.134436641982 58.3360808758387 0.0
vertex 168.134436641982 63.7360808758388 44.3929678649057
vertex 168.134436641982 63.7360808758388 0.0
endloop
endfacet
facet normal 0.0 0.0 -1.0
outer loop
vertex 43.9906468523107 131.236080875839 0.0
vertex 83.5214132577702 106.136080875839 0.0
vertex 43.9906468523107 58.3360808758387 0.0
endloop
endfacet
facet normal 0.0 0.0 -1.0
outer loop
vertex 83.5214132577702 106.136080875839 0.0
vertex 43.9906468523107 131.236080875839 0.0
vertex 107.793021142996 131.236080875839 0.0
endloop
endfacet
facet normal 0.0 0.0 -1.0
outer loop
vertex 43.9906468523107 58.3360808758387 0.0
vertex 83.5214132577702 106.136080875839 0.0
vertex 68.257180132331 63.7360808758387 0.0
endloop
endfacet
facet normal 0.0 0.0 -1.0
outer loop
vertex 68.257180132331 63.7360808758387 0.0
vertex 83.5214132577702 106.136080875839 0.0
vertex 81.5763485799178 63.7360808758387 0.0
endloop
endfacet
facet normal 0.0 0.0 -1.0
outer loop
vertex 81.5763485799178 63.7360808758387 0.0
vertex 83.5214132577702 106.136080875839 0.0
vertex 81.5763485799178 58.3360808758387 0.0
endloop
endfacet
facet normal 0.0 0.0 -1.0
outer loop
vertex 83.5214132577702 106.136080875839 0.0
vertex 107.793021142996 131.236080875839 0.0
vertex 154.22141325777 106.136080875839 0.0
endloop
endfacet
facet normal 0.0 0.0 -1.0
outer loop
vertex 154.22141325777 106.136080875839 0.0
vertex 107.793021142996 131.236080875839 0.0
vertex 116.029047889552 131.236080875839 0.0
endloop
endfacet
facet normal 0.0 0.0 -1.0
outer loop
vertex 154.22141325777 106.136080875839 0.0
vertex 116.029047889552 131.236080875839 0.0
vertex 193.690646852311 131.236080875839 0.0
endloop
endfacet
facet normal 0.0 0.0 -1.0
outer loop
vertex 154.22141325777 106.136080875839 0.0
vertex 193.690646852311 131.236080875839 0.0
vertex 154.22141325777 79.8360808758387 0.0
endloop
endfacet
facet normal 0.0 0.0 -1.0
outer loop
vertex 154.22141325777 79.8360808758387 0.0
vertex 193.690646852311 131.236080875839 0.0
vertex 156.234436641982 63.7360808758388 0.0
endloop
endfacet
facet normal 0.0 0.0 -1.0
outer loop
vertex 154.22141325777 79.8360808758387 0.0
vertex 156.234436641982 63.7360808758388 0.0
vertex 154.22141325777 58.3360808758387 0.0
endloop
endfacet
facet normal 0.0 0.0 -1.0
outer loop
vertex 156.234436641982 63.7360808758388 0.0
vertex 193.690646852311 131.236080875839 0.0
vertex 168.134436641982 63.7360808758388 0.0
endloop
endfacet
facet normal 0.0 0.0 -1.0
outer loop
vertex 168.134436641982 63.7360808758388 0.0
vertex 193.690646852311 131.236080875839 0.0
vertex 168.134436641982 58.3360808758387 0.0
endloop
endfacet
facet normal 0.0 0.0 -1.0
outer loop
vertex 168.134436641982 58.3360808758387 0.0
vertex 193.690646852311 131.236080875839 0.0
vertex 193.690646852311 58.3360808758387 0.0
endloop
endfacet
facet normal 0.0 0.0 -1.0
outer loop
vertex 156.234436641982 58.3360808758387 0.0
vertex 154.22141325777 58.3360808758387 0.0
vertex 156.234436641982 63.7360808758388 0.0
endloop
endfacet
facet normal 0.0 0.0 -1.0
outer loop
vertex 83.5214132577702 106.136080875839 0.0
vertex 83.5214132577702 58.3360808758387 0.0
vertex 81.5763485799178 58.3360808758387 0.0
endloop
endfacet
facet normal 0.0 0.0 -1.0
outer loop
vertex 83.5214132577702 58.3360808758387 0.0
vertex 83.5214132577702 106.136080875839 0.0
vertex 83.5214132577702 79.8360808758387 0.0
endloop
endfacet
facet normal 0.0 0.0 -1.0
outer loop
vertex 68.257180132331 58.3360808758387 0.0
vertex 43.9906468523107 58.3360808758387 0.0
vertex 68.257180132331 63.7360808758387 0.0
endloop
endfacet
facet normal -0.0 -0.0 1.0
outer loop
vertex 193.690646852311 58.3360808758387 52.1
vertex 154.22141325777 77.8360808758387 52.1
vertex 154.22141325777 58.3360808758387 52.1
endloop
endfacet
facet normal -0.0 -0.0 1.0
outer loop
vertex 154.22141325777 77.8360808758387 52.1
vertex 193.690646852311 58.3360808758387 52.1
vertex 154.22141325777 79.8360808758387 52.1
endloop
endfacet
facet normal -0.0 -0.0 1.0
outer loop
vertex 154.22141325777 79.8360808758387 52.1
vertex 193.690646852311 58.3360808758387 52.1
vertex 154.22141325777 95.0702066631779 52.1
endloop
endfacet
facet normal -0.0 -0.0 1.0
outer loop
vertex 154.22141325777 95.0702066631779 52.1
vertex 193.690646852311 58.3360808758387 52.1
vertex 154.22141325777 106.136080875839 52.1
endloop
endfacet
facet normal -0.0 -0.0 1.0
outer loop
vertex 154.22141325777 106.136080875839 52.1
vertex 193.690646852311 58.3360808758387 52.1
vertex 154.22141325777 113.153143769508 52.1
endloop
endfacet
facet normal -0.0 -0.0 1.0
outer loop
vertex 154.22141325777 113.153143769508 52.1
vertex 136.13847615144 131.236080875839 52.1
vertex 136.13847615144 113.153143769508 52.1
endloop
endfacet
facet normal -0.0 -0.0 1.0
outer loop
vertex 136.13847615144 131.236080875839 52.1
vertex 154.22141325777 113.153143769508 52.1
vertex 193.690646852311 131.236080875839 52.1
endloop
endfacet
facet normal -0.0 -0.0 1.0
outer loop
vertex 193.690646852311 131.236080875839 52.1
vertex 154.22141325777 113.153143769508 52.1
vertex 193.690646852311 58.3360808758387 52.1
endloop
endfacet
facet normal 0.0 -1.0 0.0
outer loop
vertex 154.22141325777 106.136080875839 52.1
vertex 83.5214132577702 106.136080875839 0.0
vertex 154.22141325777 106.136080875839 0.0
endloop
endfacet
facet normal 0.0 -1.0 0.0
outer loop
vertex 83.5214132577702 106.136080875839 0.0
vertex 154.22141325777 106.136080875839 52.1
vertex 83.5214132577702 106.136080875839 52.1
endloop
endfacet
facet normal -0.0 1.0 -0.0
outer loop
vertex 43.9906468523107 131.236080875839 52.1
vertex 107.793021142996 131.236080875839 0.0
vertex 43.9906468523107 131.236080875839 0.0
endloop
endfacet
facet normal -0.0 1.0 -0.0
outer loop
vertex 107.793021142996 131.236080875839 0.0
vertex 43.9906468523107 131.236080875839 52.1
vertex 107.793021142996 131.236080875839 45.9
endloop
endfacet
facet normal -0.0 1.0 -0.0
outer loop
vertex 107.793021142996 131.236080875839 45.9
vertex 43.9906468523107 131.236080875839 52.1
vertex 116.029047889552 131.236080875839 45.9
endloop
endfacet
facet normal -0.0 1.0 -0.0
outer loop
vertex 101.604350364101 131.236080875839 55.8
vertex 136.13847615144 131.236080875839 52.1
vertex 101.604350364101 131.236080875839 52.1
endloop
endfacet
facet normal -0.0 1.0 -0.0
outer loop
vertex 136.13847615144 131.236080875839 52.1
vertex 101.604350364101 131.236080875839 55.8
vertex 136.13847615144 131.236080875839 55.8
endloop
endfacet
facet normal -0.0 1.0 -0.0
outer loop
vertex 116.029047889552 131.236080875839 45.9
vertex 193.690646852311 131.236080875839 0.0
vertex 116.029047889552 131.236080875839 0.0
endloop
endfacet
facet normal -0.0 1.0 -0.0
outer loop
vertex 193.690646852311 131.236080875839 0.0
vertex 116.029047889552 131.236080875839 45.9
vertex 193.690646852311 131.236080875839 52.1
endloop
endfacet
facet normal -0.0 1.0 -0.0
outer loop
vertex 193.690646852311 131.236080875839 52.1
vertex 116.029047889552 131.236080875839 45.9
vertex 43.9906468523107 131.236080875839 52.1
endloop
endfacet
facet normal -0.0 1.0 -0.0
outer loop
vertex 193.690646852311 131.236080875839 52.1
vertex 43.9906468523107 131.236080875839 52.1
vertex 101.604350364101 131.236080875839 52.1
endloop
endfacet
facet normal -0.0 1.0 -0.0
outer loop
vertex 193.690646852311 131.236080875839 52.1
vertex 101.604350364101 131.236080875839 52.1
vertex 136.13847615144 131.236080875839 52.1
endloop
endfacet
facet normal 1.0 -0.0 -0.0
outer loop
vertex 83.5214132577702 79.8360808758387 44.3929678649057
vertex 83.5214132577702 77.8360808758387 52.1
vertex 83.5214132577702 77.8360808758387 44.3929678649057
endloop
endfacet
facet normal 1.0 -0.0 -0.0
outer loop
vertex 83.5214132577702 77.8360808758387 52.1
vertex 83.5214132577702 79.8360808758387 44.3929678649057
vertex 83.5214132577702 79.8360808758387 52.1
endloop
endfacet
facet normal -1.0 0.0 0.0
outer loop
vertex 154.22141325777 79.8360808758387 52.1
vertex 154.22141325777 77.8360808758387 44.3929678649057
vertex 154.22141325777 77.8360808758387 52.1
endloop
endfacet
facet normal -1.0 0.0 0.0
outer loop
vertex 154.22141325777 77.8360808758387 44.3929678649057
vertex 154.22141325777 79.8360808758387 52.1
vertex 154.22141325777 79.8360808758387 44.3929678649057
endloop
endfacet
facet normal -1.0 0.0 0.0
outer loop
vertex 154.22141325777 95.0702066631779 52.1
vertex 154.22141325777 79.8360808758387 44.3929678649057
vertex 154.22141325777 79.8360808758387 52.1
endloop
endfacet
facet normal -1.0 0.0 0.0
outer loop
vertex 154.22141325777 79.8360808758387 44.3929678649057
vertex 154.22141325777 95.0702066631779 52.1
vertex 154.22141325777 79.8360808758387 0.0
endloop
endfacet
facet normal -1.0 0.0 0.0
outer loop
vertex 154.22141325777 79.8360808758387 0.0
vertex 154.22141325777 95.0702066631779 52.1
vertex 154.22141325777 106.136080875839 0.0
endloop
endfacet
facet normal -1.0 0.0 0.0
outer loop
vertex 154.22141325777 106.136080875839 0.0
vertex 154.22141325777 95.0702066631779 52.1
vertex 154.22141325777 106.136080875839 52.1
endloop
endfacet
facet normal -0.0 -0.0 1.0
outer loop
vertex 83.5214132577702 95.0702066631779 52.1
vertex 83.5214132577702 106.136080875839 52.1
vertex 83.5214132577702 79.8360808758387 52.1
endloop
endfacet
facet normal -0.0 -0.0 1.0
outer loop
vertex 83.5214132577702 58.3360808758387 52.1
vertex 43.9906468523107 131.236080875839 52.1
vertex 43.9906468523107 58.3360808758387 52.1
endloop
endfacet
facet normal -0.0 -0.0 1.0
outer loop
vertex 43.9906468523107 131.236080875839 52.1
vertex 83.5214132577702 58.3360808758387 52.1
vertex 83.5214132577702 106.136080875839 52.1
endloop
endfacet
facet normal -0.0 -0.0 1.0
outer loop
vertex 43.9906468523107 131.236080875839 52.1
vertex 83.5214132577702 106.136080875839 52.1
vertex 83.5214132577702 113.153143769508 52.1
endloop
endfacet
facet normal -0.0 -0.0 1.0
outer loop
vertex 43.9906468523107 131.236080875839 52.1
vertex 83.5214132577702 113.153143769508 52.1
vertex 101.604350364101 131.236080875839 52.1
endloop
endfacet
facet normal -0.0 -0.0 1.0
outer loop
vertex 83.5214132577702 106.136080875839 52.1
vertex 83.5214132577702 58.3360808758387 52.1
vertex 83.5214132577702 77.8360808758387 52.1
endloop
endfacet
facet normal -0.0 -0.0 1.0
outer loop
vertex 83.5214132577702 106.136080875839 52.1
vertex 83.5214132577702 77.8360808758387 52.1
vertex 83.5214132577702 79.8360808758387 52.1
endloop
endfacet
facet normal -0.0 -0.0 1.0
outer loop
vertex 101.604350364101 131.236080875839 52.1
vertex 83.5214132577702 113.153143769508 52.1
vertex 101.604350364101 113.153143769508 52.1
endloop
endfacet
facet normal -0.0 -0.0 1.0
outer loop
vertex 83.5214132577702 95.0702066631779 52.1
vertex 154.22141325777 106.136080875839 52.1
vertex 83.5214132577702 106.136080875839 52.1
endloop
endfacet
facet normal -0.0 -0.0 1.0
outer loop
vertex 154.22141325777 106.136080875839 52.1
vertex 83.5214132577702 95.0702066631779 52.1
vertex 154.22141325777 95.0702066631779 52.1
endloop
endfacet
facet normal -1.0 6.01088108083615e-017 6.37152168285486e-017
outer loop
vertex 83.5214132577702 95.0702066631779 52.1
vertex 83.5214132577702 79.8360808758387 44.3929678649057
vertex 83.5214132577702 79.8360808758387 52.1
endloop
endfacet
facet normal -1.0 6.01088108083615e-017 6.37152168285486e-017
outer loop
vertex 83.5214132577702 79.8360808758387 44.3929678649057
vertex 83.5214132577702 95.0702066631779 52.1
vertex 83.5214132577702 79.8360808758387 0.0
endloop
endfacet
facet normal -1.0 6.01088108083615e-017 6.37152168285486e-017
outer loop
vertex 83.5214132577702 79.8360808758387 0.0
vertex 83.5214132577702 95.0702066631779 52.1
vertex 83.5214132577702 106.136080875839 0.0
endloop
endfacet
facet normal -1.0 6.01088108083615e-017 6.37152168285486e-017
outer loop
vertex 83.5214132577702 106.136080875839 0.0
vertex 83.5214132577702 95.0702066631779 52.1
vertex 83.5214132577702 106.136080875839 52.1
endloop
endfacet
facet normal -0.0 -0.0 1.0
outer loop
vertex 154.22141325777 77.8360808758387 52.1
vertex 83.5214132577702 79.8360808758387 52.1
vertex 83.5214132577702 77.8360808758387 52.1
endloop
endfacet
facet normal -0.0 -0.0 1.0
outer loop
vertex 83.5214132577702 79.8360808758387 52.1
vertex 154.22141325777 77.8360808758387 52.1
vertex 83.5214132577702 95.0702066631779 52.1
endloop
endfacet
facet normal -0.0 -0.0 1.0
outer loop
vertex 83.5214132577702 95.0702066631779 52.1
vertex 154.22141325777 77.8360808758387 52.1
vertex 154.22141325777 95.0702066631779 52.1
endloop
endfacet
facet normal -0.0 -0.0 1.0
outer loop
vertex 154.22141325777 95.0702066631779 52.1
vertex 154.22141325777 77.8360808758387 52.1
vertex 154.22141325777 79.8360808758387 52.1
endloop
endfacet
facet normal -1.0 0.0 0.0
outer loop
vertex 43.9906468523107 131.236080875839 52.1
vertex 43.9906468523107 58.3360808758387 0.0
vertex 43.9906468523107 58.3360808758387 52.1
endloop
endfacet
facet normal -1.0 0.0 0.0
outer loop
vertex 43.9906468523107 58.3360808758387 0.0
vertex 43.9906468523107 131.236080875839 52.1
vertex 43.9906468523107 131.236080875839 0.0
endloop
endfacet
facet normal 1.0 -0.0 -0.0
outer loop
vertex 193.690646852311 131.236080875839 0.0
vertex 193.690646852311 58.3360808758387 52.1
vertex 193.690646852311 58.3360808758387 0.0
endloop
endfacet
facet normal 1.0 -0.0 -0.0
outer loop
vertex 193.690646852311 58.3360808758387 52.1
vertex 193.690646852311 131.236080875839 0.0
vertex 193.690646852311 131.236080875839 52.1
endloop
endfacet
facet normal 0.0 0.0 -1.0
outer loop
vertex 168.134436641982 63.7360808758388 44.3929678649057
vertex 156.234436641982 58.3360808758387 44.3929678649057
vertex 156.234436641982 63.7360808758388 44.3929678649057
endloop
endfacet
facet normal 0.0 0.0 -1.0
outer loop
vertex 156.234436641982 58.3360808758387 44.3929678649057
vertex 168.134436641982 63.7360808758388 44.3929678649057
vertex 168.134436641982 58.3360808758387 44.3929678649057
endloop
endfacet
facet normal 1.0 -0.0 -0.0
outer loop
vertex 156.234436641982 63.7360808758388 0.0
vertex 156.234436641982 58.3360808758387 44.3929678649057
vertex 156.234436641982 58.3360808758387 0.0
endloop
endfacet
facet normal 1.0 -0.0 -0.0
outer loop
vertex 156.234436641982 58.3360808758387 44.3929678649057
vertex 156.234436641982 63.7360808758388 0.0
vertex 156.234436641982 63.7360808758388 44.3929678649057
endloop
endfacet
facet normal 0.0 -1.0 0.0
outer loop
vertex 83.5214132577702 58.3360808758387 52.1
vertex 81.5763485799178 58.3360808758387 0.0
vertex 83.5214132577702 58.3360808758387 0.0
endloop
endfacet
facet normal 0.0 -1.0 0.0
outer loop
vertex 81.5763485799178 58.3360808758387 0.0
vertex 83.5214132577702 58.3360808758387 52.1
vertex 81.5763485799178 58.3360808758387 44.3929678649057
endloop
endfacet
facet normal 0.0 -1.0 0.0
outer loop
vertex 81.5763485799178 58.3360808758387 44.3929678649057
vertex 83.5214132577702 58.3360808758387 52.1
vertex 68.257180132331 58.3360808758387 44.3929678649057
endloop
endfacet
facet normal 0.0 -1.0 0.0
outer loop
vertex 68.257180132331 58.3360808758387 44.3929678649057
vertex 83.5214132577702 58.3360808758387 52.1
vertex 66.048779583783 58.3360808758387 44.3929678649057
endloop
endfacet
facet normal 0.0 -1.0 0.0
outer loop
vertex 66.048779583783 58.3360808758387 44.3929678649057
vertex 83.5214132577702 58.3360808758387 52.1
vertex 60.948779583783 58.3360808758387 44.3929678649057
endloop
endfacet
facet normal 0.0 -1.0 0.0
outer loop
vertex 43.9906468523107 58.3360808758387 0.0
vertex 60.948779583783 58.3360808758387 17.0929678649057
vertex 43.9906468523107 58.3360808758387 52.1
endloop
endfacet
facet normal 0.0 -1.0 0.0
outer loop
vertex 60.948779583783 58.3360808758387 17.0929678649057
vertex 43.9906468523107 58.3360808758387 0.0
vertex 66.048779583783 58.3360808758387 17.0929678649057
endloop
endfacet
facet normal 0.0 -1.0 0.0
outer loop
vertex 43.9906468523107 58.3360808758387 52.1
vertex 60.948779583783 58.3360808758387 17.0929678649057
vertex 60.948779583783 58.3360808758387 44.3929678649057
endloop
endfacet
facet normal 0.0 -1.0 0.0
outer loop
vertex 43.9906468523107 58.3360808758387 52.1
vertex 60.948779583783 58.3360808758387 44.3929678649057
vertex 83.5214132577702 58.3360808758387 52.1
endloop
endfacet
facet normal 0.0 -1.0 0.0
outer loop
vertex 68.257180132331 58.3360808758387 0.0
vertex 66.048779583783 58.3360808758387 17.0929678649057
vertex 43.9906468523107 58.3360808758387 0.0
endloop
endfacet
facet normal 0.0 -1.0 0.0
outer loop
vertex 66.048779583783 58.3360808758387 17.0929678649057
vertex 68.257180132331 58.3360808758387 0.0
vertex 68.257180132331 58.3360808758387 44.3929678649057
endloop
endfacet
facet normal 0.0 -1.0 0.0
outer loop
vertex 66.048779583783 58.3360808758387 17.0929678649057
vertex 68.257180132331 58.3360808758387 44.3929678649057
vertex 66.048779583783 58.3360808758387 44.3929678649057
endloop
endfacet
facet normal 0.0 -1.0 0.0
outer loop
vertex 193.690646852311 58.3360808758387 52.1
vertex 168.134436641982 58.3360808758387 0.0
vertex 193.690646852311 58.3360808758387 0.0
endloop
endfacet
facet normal 0.0 -1.0 0.0
outer loop
vertex 168.134436641982 58.3360808758387 0.0
vertex 193.690646852311 58.3360808758387 52.1
vertex 175.720488831806 58.3360808758387 17.0929678649057
endloop
endfacet
facet normal 0.0 -1.0 0.0
outer loop
vertex 175.720488831806 58.3360808758387 17.0929678649057
vertex 193.690646852311 58.3360808758387 52.1
vertex 175.720488831806 58.3360808758387 44.1384561978826
endloop
endfacet
facet normal 0.0 -1.0 0.0
outer loop
vertex 175.720488831806 58.3360808758387 44.1384561978826
vertex 193.690646852311 58.3360808758387 52.1
vertex 170.030714703246 58.3360808758387 44.1384561978826
endloop
endfacet
facet normal 0.0 -1.0 0.0
outer loop
vertex 170.030714703246 58.3360808758387 44.1384561978826
vertex 193.690646852311 58.3360808758387 52.1
vertex 168.134436641982 58.3360808758387 44.3929678649057
endloop
endfacet
facet normal 0.0 -1.0 0.0
outer loop
vertex 168.134436641982 58.3360808758387 44.3929678649057
vertex 193.690646852311 58.3360808758387 52.1
vertex 156.234436641982 58.3360808758387 44.3929678649057
endloop
endfacet
facet normal 0.0 -1.0 0.0
outer loop
vertex 156.234436641982 58.3360808758387 44.3929678649057
vertex 154.22141325777 58.3360808758387 0.0
vertex 156.234436641982 58.3360808758387 0.0
endloop
endfacet
facet normal 0.0 -1.0 0.0
outer loop
vertex 154.22141325777 58.3360808758387 0.0
vertex 156.234436641982 58.3360808758387 44.3929678649057
vertex 154.22141325777 58.3360808758387 52.1
endloop
endfacet
facet normal 0.0 -1.0 0.0
outer loop
vertex 154.22141325777 58.3360808758387 52.1
vertex 156.234436641982 58.3360808758387 44.3929678649057
vertex 193.690646852311 58.3360808758387 52.1
endloop
endfacet
facet normal 0.0 -1.0 0.0
outer loop
vertex 168.134436641982 58.3360808758387 0.0
vertex 170.030714703246 58.3360808758387 17.0929678649057
vertex 168.134436641982 58.3360808758387 44.3929678649057
endloop
endfacet
facet normal 0.0 -1.0 0.0
outer loop
vertex 170.030714703246 58.3360808758387 17.0929678649057
vertex 168.134436641982 58.3360808758387 0.0
vertex 175.720488831806 58.3360808758387 17.0929678649057
endloop
endfacet
facet normal 0.0 -1.0 0.0
outer loop
vertex 168.134436641982 58.3360808758387 44.3929678649057
vertex 170.030714703246 58.3360808758387 17.0929678649057
vertex 170.030714703246 58.3360808758387 44.1384561978826
endloop
endfacet
facet normal 0.0 -1.0 0.0
outer loop
vertex 66.048779583783 60.1360808758387 44.3929678649057
vertex 60.948779583783 60.1360808758387 17.0929678649057
vertex 66.048779583783 60.1360808758387 17.0929678649057
endloop
endfacet
facet normal 0.0 -1.0 0.0
outer loop
vertex 60.948779583783 60.1360808758387 17.0929678649057
vertex 66.048779583783 60.1360808758387 44.3929678649057
vertex 60.948779583783 60.1360808758387 44.3929678649057
endloop
endfacet
facet normal -0.0 -0.0 -1.0
outer loop
vertex 66.048779583783 60.1360808758387 44.3929678649057
vertex 60.948779583783 58.3360808758387 44.3929678649057
vertex 60.948779583783 60.1360808758387 44.3929678649057
endloop
endfacet
facet normal -0.0 -0.0 -1.0
outer loop
vertex 60.948779583783 58.3360808758387 44.3929678649057
vertex 66.048779583783 60.1360808758387 44.3929678649057
vertex 66.048779583783 58.3360808758387 44.3929678649057
endloop
endfacet
facet normal 1.0 0.0 0.0
outer loop
vertex 60.948779583783 60.1360808758387 17.0929678649057
vertex 60.948779583783 58.3360808758387 44.3929678649057
vertex 60.948779583783 58.3360808758387 17.0929678649057
endloop
endfacet
facet normal 1.0 0.0 0.0
outer loop
vertex 60.948779583783 58.3360808758387 44.3929678649057
vertex 60.948779583783 60.1360808758387 17.0929678649057
vertex 60.948779583783 60.1360808758387 44.3929678649057
endloop
endfacet
facet normal -0.0 -0.0 1.0
outer loop
vertex 66.048779583783 58.3360808758387 17.0929678649057
vertex 60.948779583783 60.1360808758387 17.0929678649057
vertex 60.948779583783 58.3360808758387 17.0929678649057
endloop
endfacet
facet normal -0.0 -0.0 1.0
outer loop
vertex 60.948779583783 60.1360808758387 17.0929678649057
vertex 66.048779583783 58.3360808758387 17.0929678649057
vertex 66.048779583783 60.1360808758387 17.0929678649057
endloop
endfacet
facet normal -1.0 -0.0 0.0
outer loop
vertex 66.048779583783 60.1360808758387 44.3929678649057
vertex 66.048779583783 58.3360808758387 17.0929678649057
vertex 66.048779583783 58.3360808758387 44.3929678649057
endloop
endfacet
facet normal -1.0 -0.0 0.0
outer loop
vertex 66.048779583783 58.3360808758387 17.0929678649057
vertex 66.048779583783 60.1360808758387 44.3929678649057
vertex 66.048779583783 60.1360808758387 17.0929678649057
endloop
endfacet
facet normal 0.0 -1.0 0.0
outer loop
vertex 175.720488831806 60.1360808758387 44.1384561978826
vertex 170.030714703246 60.1360808758387 17.0929678649057
vertex 175.720488831806 60.1360808758387 17.0929678649057
endloop
endfacet
facet normal 0.0 -1.0 0.0
outer loop
vertex 170.030714703246 60.1360808758387 17.0929678649057
vertex 175.720488831806 60.1360808758387 44.1384561978826
vertex 170.030714703246 60.1360808758387 44.1384561978826
endloop
endfacet
facet normal -1.0 -0.0 0.0
outer loop
vertex 175.720488831806 60.1360808758387 44.1384561978826
vertex 175.720488831806 58.3360808758387 17.0929678649057
vertex 175.720488831806 58.3360808758387 44.1384561978826
endloop
endfacet
facet normal -1.0 -0.0 0.0
outer loop
vertex 175.720488831806 58.3360808758387 17.0929678649057
vertex 175.720488831806 60.1360808758387 44.1384561978826
vertex 175.720488831806 60.1360808758387 17.0929678649057
endloop
endfacet
facet normal -0.0 -0.0 -1.0
outer loop
vertex 175.720488831806 60.1360808758387 44.1384561978826
vertex 170.030714703246 58.3360808758387 44.1384561978826
vertex 170.030714703246 60.1360808758387 44.1384561978826
endloop
endfacet
facet normal -0.0 -0.0 -1.0
outer loop
vertex 170.030714703246 58.3360808758387 44.1384561978826
vertex 175.720488831806 60.1360808758387 44.1384561978826
vertex 175.720488831806 58.3360808758387 44.1384561978826
endloop
endfacet
facet normal 1.0 0.0 0.0
outer loop
vertex 170.030714703246 60.1360808758387 17.0929678649057
vertex 170.030714703246 58.3360808758387 44.1384561978826
vertex 170.030714703246 58.3360808758387 17.0929678649057
endloop
endfacet
facet normal 1.0 0.0 0.0
outer loop
vertex 170.030714703246 58.3360808758387 44.1384561978826
vertex 170.030714703246 60.1360808758387 17.0929678649057
vertex 170.030714703246 60.1360808758387 44.1384561978826
endloop
endfacet
facet normal -0.0 -0.0 1.0
outer loop
vertex 175.720488831806 58.3360808758387 17.0929678649057
vertex 170.030714703246 60.1360808758387 17.0929678649057
vertex 170.030714703246 58.3360808758387 17.0929678649057
endloop
endfacet
facet normal -0.0 -0.0 1.0
outer loop
vertex 170.030714703246 60.1360808758387 17.0929678649057
vertex 175.720488831806 58.3360808758387 17.0929678649057
vertex 175.720488831806 60.1360808758387 17.0929678649057
endloop
endfacet
endsolid RedGate
